<?xml version="1.0" encoding="UTF-8"?>
<svg id="Layer_2" data-name="Layer 2" xmlns="http://www.w3.org/2000/svg" viewBox="0 0 212.98 258.74">
  <defs>
    <style>
      .cls-1 {
        fill: #fff;
        fill-rule: evenodd;
      }
    </style>
  </defs>
  <g id="Layer_1-2" data-name="Layer 1">
    <g>
      <path class="cls-1" d="M110.9,2.73c7.18,1.78,13,6.96,13,11.56s-5.82,6.88-13,5.1c-7.18-1.78-13-6.96-13-11.56s5.82-6.88,13-5.1Z"/>
      <path class="cls-1" d="M118.07,97.81c9.24,0,16.78-7.41,16.78-16.51s-7.54-16.51-16.78-16.51-16.78,7.42-16.78,16.51,7.54,16.51,16.78,16.51Z"/>
      <path class="cls-1" d="M189.45,145.53c5.27,0,9.56-6.92,9.56-15.39s-4.29-15.39-9.56-15.39-9.56,6.92-9.56,15.39,4.29,15.39,9.56,15.39Z"/>
      <path class="cls-1" d="M186.78,193.99c3.26,1.95,2.16,8.95-2.46,15.63-4.61,6.68-11,10.52-14.25,8.57-3.26-1.95-2.16-8.95,2.46-15.63,4.61-6.68,11-10.52,14.25-8.57Z"/>
      <path class="cls-1" d="M117.3,194.83c9.33,0,16.93-7.48,16.93-16.66s-7.61-16.66-16.93-16.66-16.93,7.48-16.93,16.66,7.61,16.66,16.93,16.66Z"/>
      <path class="cls-1" d="M123.86,244.44c1.45,4.39-3.11,9.84-10.19,12.17-7.07,2.33-13.98.66-15.42-3.74-1.45-4.39,3.11-9.84,10.19-12.17,7.07-2.33,13.98-.66,15.42,3.74Z"/>
      <path class="cls-1" d="M181.45,46.32c4.92,4.69,7.95,11.9,6.77,16.1-1.18,4.2-6.12,3.8-11.04-.9-4.92-4.69-7.95-11.9-6.77-16.1,1.18-4.2,6.12-3.8,11.04.9Z"/>
      <polygon class="cls-1" points="181.06 85.57 196.73 85.66 198.17 85.11 198.26 91.12 195.88 91.1 180.7 91.45 175.53 96.34 176.7 78.35 181.06 85.57"/>
      <path class="cls-1" d="M209.9,116.02c-1.72,0-3.13,6.32-3.15,14.11-.02,7.79,1.36,14.11,3.08,14.11s3.13-6.32,3.15-14.11c.02-7.79-1.36-14.11-3.08-14.11Z"/>
      <path class="cls-1" d="M160.93,230.97c1.74,1.67-1.93,6.74-8.18,11.32-6.25,4.59-12.73,6.95-14.47,5.28-1.74-1.67,1.93-6.74,8.18-11.32,6.25-4.59,12.73-6.95,14.47-5.28Z"/>
      <path class="cls-1" d="M161.31,26.9c-.76,2.08-6.4.88-12.59-2.7-6.19-3.57-10.59-8.16-9.83-10.24.76-2.08,6.4-.88,12.59,2.7,6.19,3.57,10.59,8.16,9.83,10.24Z"/>
      <path class="cls-1" d="M86.09,147.18c10.25,0,18.61-8.23,18.61-18.31s-8.36-18.31-18.61-18.31-18.61,8.23-18.61,18.31,8.36,18.31,18.61,18.31Z"/>
      <path class="cls-1" d="M148.67,146.8c8.34,0,15.15-7.94,15.15-17.68s-6.81-17.68-15.15-17.68-15.15,7.94-15.15,17.68,6.81,17.68,15.15,17.68Z"/>
      <path class="cls-1" d="M98.71,141.81c.77.16,8.35-9.92,15.03-9.74h12.58c2.23.05,6.25.97,11.15,8.6l-.57-22.7s-5.26,5.99-11.7,6.21c-2.21.01-4.43.02-6.64.04-2.46.01-4.42.02-7.02-.02-1.01-.02-8.05-2.51-12.65-8.36l-.18,25.98Z"/>
      <g>
        <path class="cls-1" d="M85.16,51.86c10.04,0,18.23-5.81,18.23-12.94s-8.19-12.94-18.23-12.94-18.23,5.81-18.23,12.94,8.19,12.94,18.23,12.94Z"/>
        <path class="cls-1" d="M147.65,34.02c7.46,4.25,11.06,11.99,8.05,17.28-3.02,5.3-11.51,6.14-18.97,1.89-7.46-4.25-11.06-11.99-8.05-17.28,3.02-5.29,11.51-6.14,18.97-1.89Z"/>
        <path class="cls-1" d="M98.5,47.06c.86-.61,4.3-3.81,9.01-4.37l15.77.08c3.02.08,3.69.74,8.98,6.09l-.33-13.94s-2.15,1.47-6.74,2.59c-2.09.35-8.38.33-10.6.28-3.54-.09-4.8-.02-8.3-.79-1.31-.29-1.9-1.61-7.09-6.05l-.7,16.11Z"/>
      </g>
      <g>
        <path class="cls-1" d="M59.26.57c8.36-1.7,17.03.55,19.38,5.02,2.35,4.47-2.53,9.48-10.88,11.18-8.36,1.7-17.03-.55-19.38-5.02-2.35-4.47,2.53-9.48,10.88-11.18Z"/>
        <path class="cls-1" d="M7.22,12.19c4.89-4.07,11.55-5.75,14.88-3.75,3.33,2,2.07,6.92-2.82,10.99-4.89,4.07-11.55,5.75-14.88,3.75-3.33-2-2.07-6.92,2.82-10.99Z"/>
        <path class="cls-1" d="M20.86,16.83c.24-.17.47-.53,1.18-1.04,1.03-.74,4.31-2.48,7.91-2.58l12.44-.85c4.27-.3,6.75.9,8.34,1.7.76.38.65-1.61,1.67-.71l-2.84-7.96s-3.48,3.07-5.28,3.35c-1.62.37-6.6.53-8.34.61-2.77.13-3.65.07-6.54.07-1.36,0-2.47.01-4.91-.36-.64-.1-2.89-.88-3.7-1.08l.09,8.85Z"/>
      </g>
      <g>
        <path class="cls-1" d="M166.55,70.63c7.58.96,13.55,8.39,13.33,16.6-.22,8.21-6.55,14.08-14.13,13.12-7.58-.96-13.55-8.39-13.33-16.6.22-8.21,6.55-14.08,14.13-13.12Z"/>
        <path class="cls-1" d="M197.36,78.64c2.52.09,5.67,5.91,7.05,12.98,1.37,7.08.45,12.74-2.07,12.64-2.52-.09-5.67-5.91-7.05-12.98-1.38-7.08-.45-12.74,2.07-12.64Z"/>
        <path class="cls-1" d="M175.37,95.41c.51-.66,5.33-3.96,8.04-4.11l7.42-.12c1.91.05,5.97.26,9.43.77l-5.22-9.17c-.15-.7-.86,2.64-4.05,2.84-1.38.04-2.77-.04-4.07-.03-2.08.01-1.46.1-3.69-.09-.8-.07-3.02-.95-5.95-6.05l-1.92,15.95Z"/>
      </g>
      <path class="cls-1" d="M170.39,159.79c6.64,2.47,9.49,11.25,6.38,19.62-3.11,8.37-11.01,13.15-17.65,10.68-6.64-2.47-9.49-11.25-6.38-19.62,3.11-8.37,11.01-13.15,17.65-10.68Z"/>
      <path class="cls-1" d="M204.95,154.84c2.11,1.37,1.85,7.98-.6,14.76-2.44,6.78-6.14,11.17-8.25,9.8-2.11-1.37-1.85-7.98.6-14.76,2.44-6.78,6.14-11.17,8.25-9.8Z"/>
      <path class="cls-1" d="M176.31,180.55c.63-.78,1.82-4.44,5.31-5.11l9.43-1.67c2.23-.27,4-.38,4.6,3.36l3.37-17.26c.02-.11-3.32,7.05-6.3,7.67-3.53.82-4.74.92-6.36,1.21-2.58.45-2.78.53-5.33.68-1.5.09-3.71-1.46-6.18-5.8l1.46,16.92Z"/>
      <path class="cls-1" d="M84.03,207.25c10-.79,18.59,4.68,19.19,12.22.6,7.54-7.02,14.3-17.02,15.09-10,.79-18.59-4.68-19.19-12.22-.6-7.54,7.02-14.3,17.02-15.09Z"/>
      <path class="cls-1" d="M136.52,206.14c7.45-4.99,15.96-4.62,19,.83,3.04,5.44-.54,13.9-7.99,18.89-7.45,4.99-15.96,4.62-19-.83-3.04-5.44.54-13.9,7.99-18.89Z"/>
      <path class="cls-1" d="M98.82,229.17c.93-.69,3.41-4.24,8.52-4.65l15.96-1.3c3.27-.2,4.37-1.29,9.61,4.31l.34-15.84s-3.5,3.86-8.21,4.58c-2.46.36-7.65.66-10.05.81-3.83.23-3.85.18-7.71.12-2.29-.04-4.87-.51-9.12-5.92l.66,17.88Z"/>
      <path class="cls-1" d="M79.29,249.68c.54,4.25-5.6,8.25-13.73,8.95-8.12.7-15.15-2.18-15.69-6.42-.54-4.25,5.6-8.25,13.73-8.95,8.12-.7,15.15,2.18,15.69,6.42Z"/>
      <path class="cls-1" d="M27.71,250.26c-.87,3.44-7.75,3.7-15.38.58-7.63-3.12-13.1-8.43-12.24-11.87.87-3.44,7.75-3.7,15.38-.58,7.63,3.12,13.1,8.43,12.24,11.87Z"/>
      <path class="cls-1" d="M22.97,252.29c.86-.4,3.94-1.08,8.57-.69l15.65,1.01c3.06.33,4.11-.01,8.96,4.32l-.77-10.88s-1.9,1.04-6.18,2.83c-2.09.19-8.49.13-10.7.04-3.54-.16-4.8-.14-8.3-.76-1.31-.23-2.1-.74-7.09-4.39l-.15,8.52Z"/>
      <path class="cls-1" d="M174.83,222.85s-15.03,15.35-29.14,22.11"/>
      <path class="cls-1" d="M150.3,16.29s14.48,8.96,22.15,18.7"/>
      <path class="cls-1" d="M44.58,129.75c.28,57.87-3.76,104.87-9.03,104.98-5.27.11-9.78-46.71-10.06-104.57-.28-57.87,3.76-104.87,9.03-104.98,5.27-.11,9.78,46.71,10.06,104.57Z"/>
    </g>
  </g>
</svg>